<svg xmlns="http://www.w3.org/2000/svg" width="441.24859" height="424.596" viewBox="0 0 441.24859 424.596"><defs><style>.efdfb968-c3d2-4e44-aabd-2a6f518ab4cc{fill:#2fedd0}.a02f85c4-c7a0-465e-9758-cbf911c71359{fill:#314eff}</style></defs><g data-name="Layer 2"><g data-name="Layer 1"><path data-name="Path 3836" class="efdfb968-c3d2-4e44-aabd-2a6f518ab4cc" d="M147.0825,367.982l49.028-28.306V396.29Z"/><path data-name="Path 3841" class="a02f85c4-c7a0-465e-9758-cbf911c71359" d="M196.11151,396.286v-56.61l49.025-28.306,49.031,28.306v56.61l-49.031,28.31Z"/><path data-name="Path 3834" class="efdfb968-c3d2-4e44-aabd-2a6f518ab4cc" d="M245.13659,198.1485l-49.025,28.302v-56.61Z"/><path data-name="Path 3834" class="efdfb968-c3d2-4e44-aabd-2a6f518ab4cc" d="M49.025,198.1485,0,226.4505v-56.61Z"/><path data-name="Path 3837" class="efdfb968-c3d2-4e44-aabd-2a6f518ab4cc" d="M343.19359,254.759l-49.028-28.309v56.614Z"/><path data-name="Path 3838" class="efdfb968-c3d2-4e44-aabd-2a6f518ab4cc" d="M343.19359,254.756l49.028,28.309V226.451Z"/><path data-name="Path 3838" class="efdfb968-c3d2-4e44-aabd-2a6f518ab4cc" d="M343.19359,84.921l-49.028-28.309v56.614Z"/><path data-name="Path 3841" class="a02f85c4-c7a0-465e-9758-cbf911c71359" d="M245.1366,84.919l49.031,28.31v56.61l-49.031,28.306-49.025-28.306v-56.61Z"/><path data-name="Path 3841" class="a02f85c4-c7a0-465e-9758-cbf911c71359" d="M147.0795,141.532l49.031,28.31v56.61l-49.031,28.306-49.025-28.306v-56.61Z"/><path data-name="Path 3837" class="efdfb968-c3d2-4e44-aabd-2a6f518ab4cc" d="M245.138,311.3725l-49.028-28.309v56.614Z"/><path data-name="Path 3837" class="efdfb968-c3d2-4e44-aabd-2a6f518ab4cc" d="M147.08149,254.761l-49.028-28.309v56.614Z"/><path data-name="Path 3837" class="efdfb968-c3d2-4e44-aabd-2a6f518ab4cc" d="M147.08149,28.309,98.05349,0V56.614Z"/><path data-name="Path 3838" class="efdfb968-c3d2-4e44-aabd-2a6f518ab4cc" d="M441.24859,311.371l-49.028-28.309v56.614Z"/></g></g></svg>